<svg width="1920" height="307" viewBox="0 0 1920 307" fill="none" xmlns="http://www.w3.org/2000/svg">
  <g clip-path="url(#clip0)">
    <path
      d="M-10 188.4L54.3333 177.901C118.667 167.794 247.333 146.206 376 130.801C504.667 114.806 633.333 104.994 762 104.699C890.667 104.994 1019.33 114.806 1148 141.3C1276.67 167.794 1405.33 209.006 1534 225.001C1662.67 240.406 1791.33 230.594 1855.67 225.001L1920 219.8V314H1855.67C1791.33 314 1662.67 314 1534 314C1405.33 314 1276.67 314 1148 314C1019.33 314 890.667 314 762 314C633.333 314 504.667 314 376 314C247.333 314 118.667 314 54.3333 314H-10V188.4Z"
      fill="#3498DB" />
  </g>
  <defs>
    <clipPath id="clip0">
      <rect width="1930" height="314" fill="white" transform="translate(-10)" />
    </clipPath>
  </defs>
</svg>